<?xml version="1.0" encoding="UTF-8" standalone="no"?><svg xmlns="http://www.w3.org/2000/svg" xmlns:xlink="http://www.w3.org/1999/xlink" contentStyleType="text/css" height="235px" preserveAspectRatio="none" style="width:470px;height:235px;background:#FFFFFF;" version="1.1" viewBox="0 0 470 235" width="470px" zoomAndPan="magnify"><defs/><g><!--MD5=[3fd616f346a44cd59a91eb10b19e157c]
class User--><g id="elem_User"><rect codeLine="3" fill="#F1F1F1" height="121.4531" id="User" rx="2.5" ry="2.5" style="stroke:#181818;stroke-width:0.5;" width="168" x="295" y="107"/><ellipse cx="351.75" cy="127.1328" fill="#ADD1B2" rx="11" ry="11" style="stroke:#181818;stroke-width:1.0;"/><path d="M354.0938,122.8047 C353.1563,122.3672 352.5625,122.2266 351.6875,122.2266 C349.0625,122.2266 347.0625,124.3047 347.0625,127.0234 L347.0625,128.1484 C347.0625,130.7266 349.1719,132.6172 352.0625,132.6172 C353.2813,132.6172 354.4375,132.3203 355.1875,131.7734 C355.7656,131.3672 356.0938,130.9141 356.0938,130.5234 C356.0938,130.0703 355.7031,129.6797 355.2344,129.6797 C355.0156,129.6797 354.8125,129.7578 354.625,129.9453 C354.1719,130.4297 354.1719,130.4297 353.9844,130.5234 C353.5625,130.7891 352.875,130.9141 352.1094,130.9141 C350.0625,130.9141 348.7656,129.8203 348.7656,128.1172 L348.7656,127.0234 C348.7656,125.2422 350.0156,123.9297 351.75,123.9297 C352.3281,123.9297 352.9375,124.0859 353.4063,124.3359 C353.8906,124.6172 354.0625,124.8359 354.1563,125.2422 C354.2188,125.6484 354.25,125.7734 354.3906,125.8984 C354.5313,126.0391 354.7656,126.1484 354.9844,126.1484 C355.25,126.1484 355.5156,126.0078 355.6875,125.7891 C355.7969,125.6328 355.8281,125.4453 355.8281,125.0234 L355.8281,123.6016 C355.8281,123.1641 355.8125,123.0391 355.7188,122.8828 C355.5625,122.6172 355.2813,122.4766 354.9844,122.4766 C354.6875,122.4766 354.4844,122.5703 354.2656,122.8828 L354.0938,122.8047 Z " fill="#000000"/><text fill="#000000" font-family="sans-serif" font-size="12" font-style="italic" lengthAdjust="spacing" textLength="50" x="370.25" y="123.1387">«auth0»</text><text fill="#000000" font-family="sans-serif" font-size="14" lengthAdjust="spacing" textLength="31" x="379.75" y="138.9639">User</text><line style="stroke:#181818;stroke-width:0.5;" x1="296" x2="462" y1="147.2656" y2="147.2656"/><ellipse cx="306" cy="158.2656" fill="none" rx="3" ry="3" style="stroke:#038048;stroke-width:1.0;"/><text fill="#000000" font-family="sans-serif" font-size="14" lengthAdjust="spacing" textLength="55" x="315" y="164.2607">id: UUID</text><ellipse cx="306" cy="174.5625" fill="none" rx="3" ry="3" style="stroke:#038048;stroke-width:1.0;"/><text fill="#000000" font-family="sans-serif" font-size="14" lengthAdjust="spacing" textLength="142" x="315" y="180.5576">displayName: string</text><ellipse cx="306" cy="190.8594" fill="none" rx="3" ry="3" style="stroke:#038048;stroke-width:1.0;"/><text fill="#000000" font-family="sans-serif" font-size="14" lengthAdjust="spacing" textLength="90" x="315" y="196.8545">email: string</text><ellipse cx="306" cy="207.1563" fill="none" rx="3" ry="3" style="stroke:#038048;stroke-width:1.0;"/><text fill="#000000" font-family="sans-serif" font-size="14" lengthAdjust="spacing" textLength="135" x="315" y="213.1514">createdDate: Date</text><line style="stroke:#181818;stroke-width:0.5;" x1="296" x2="462" y1="220.4531" y2="220.4531"/></g><!--MD5=[fd0c02e4b4e5461cee230571da46f50a]
class UserConfig--><g id="elem_UserConfig"><rect codeLine="10" fill="#F1F1F1" height="105.1563" id="UserConfig" rx="2.5" ry="2.5" style="stroke:#181818;stroke-width:0.5;" width="167" x="7" y="115"/><ellipse cx="47.65" cy="135.1328" fill="#ADD1B2" rx="11" ry="11" style="stroke:#181818;stroke-width:1.0;"/><path d="M49.9938,130.8047 C49.0563,130.3672 48.4625,130.2266 47.5875,130.2266 C44.9625,130.2266 42.9625,132.3047 42.9625,135.0234 L42.9625,136.1484 C42.9625,138.7266 45.0719,140.6172 47.9625,140.6172 C49.1813,140.6172 50.3375,140.3203 51.0875,139.7734 C51.6656,139.3672 51.9938,138.9141 51.9938,138.5234 C51.9938,138.0703 51.6031,137.6797 51.1344,137.6797 C50.9156,137.6797 50.7125,137.7578 50.525,137.9453 C50.0719,138.4297 50.0719,138.4297 49.8844,138.5234 C49.4625,138.7891 48.775,138.9141 48.0094,138.9141 C45.9625,138.9141 44.6656,137.8203 44.6656,136.1172 L44.6656,135.0234 C44.6656,133.2422 45.9156,131.9297 47.65,131.9297 C48.2281,131.9297 48.8375,132.0859 49.3063,132.3359 C49.7906,132.6172 49.9625,132.8359 50.0563,133.2422 C50.1188,133.6484 50.15,133.7734 50.2906,133.8984 C50.4313,134.0391 50.6656,134.1484 50.8844,134.1484 C51.15,134.1484 51.4156,134.0078 51.5875,133.7891 C51.6969,133.6328 51.7281,133.4453 51.7281,133.0234 L51.7281,131.6016 C51.7281,131.1641 51.7125,131.0391 51.6188,130.8828 C51.4625,130.6172 51.1813,130.4766 50.8844,130.4766 C50.5875,130.4766 50.3844,130.5703 50.1656,130.8828 L49.9938,130.8047 Z " fill="#000000"/><text fill="#000000" font-family="sans-serif" font-size="12" font-style="italic" lengthAdjust="spacing" textLength="43" x="84.85" y="131.1387">«yaml»</text><text fill="#000000" font-family="sans-serif" font-size="14" lengthAdjust="spacing" textLength="78" x="67.35" y="146.9639">UserConfig</text><line style="stroke:#181818;stroke-width:0.5;" x1="8" x2="173" y1="155.2656" y2="155.2656"/><ellipse cx="18" cy="166.2656" fill="none" rx="3" ry="3" style="stroke:#038048;stroke-width:1.0;"/><text fill="#000000" font-family="sans-serif" font-size="14" lengthAdjust="spacing" textLength="90" x="27" y="172.2607">email: string</text><ellipse cx="18" cy="182.5625" fill="none" rx="3" ry="3" style="stroke:#038048;stroke-width:1.0;"/><text fill="#000000" font-family="sans-serif" font-size="14" lengthAdjust="spacing" textLength="141" x="27" y="188.5576">timeZone: TZstring</text><ellipse cx="18" cy="198.8594" fill="none" rx="3" ry="3" style="stroke:#038048;stroke-width:1.0;"/><text fill="#000000" font-family="sans-serif" font-size="14" lengthAdjust="spacing" textLength="81" x="27" y="204.8545">horas: Hora</text><line style="stroke:#181818;stroke-width:0.5;" x1="8" x2="173" y1="212.1563" y2="212.1563"/></g><!--MD5=[38233db7aa430d7e56eb122585cf4831]
class Hora--><g id="elem_Hora"><rect codeLine="17" fill="#F1F1F1" height="72.5625" id="Hora" rx="2.5" ry="2.5" style="stroke:#181818;stroke-width:0.5;" width="71" x="55" y="7"/><ellipse cx="70" cy="27.1328" fill="#ADD1B2" rx="11" ry="11" style="stroke:#181818;stroke-width:1.0;"/><path d="M72.3438,22.8047 C71.4063,22.3672 70.8125,22.2266 69.9375,22.2266 C67.3125,22.2266 65.3125,24.3047 65.3125,27.0234 L65.3125,28.1484 C65.3125,30.7266 67.4219,32.6172 70.3125,32.6172 C71.5313,32.6172 72.6875,32.3203 73.4375,31.7734 C74.0156,31.3672 74.3438,30.9141 74.3438,30.5234 C74.3438,30.0703 73.9531,29.6797 73.4844,29.6797 C73.2656,29.6797 73.0625,29.7578 72.875,29.9453 C72.4219,30.4297 72.4219,30.4297 72.2344,30.5234 C71.8125,30.7891 71.125,30.9141 70.3594,30.9141 C68.3125,30.9141 67.0156,29.8203 67.0156,28.1172 L67.0156,27.0234 C67.0156,25.2422 68.2656,23.9297 70,23.9297 C70.5781,23.9297 71.1875,24.0859 71.6563,24.3359 C72.1406,24.6172 72.3125,24.8359 72.4063,25.2422 C72.4688,25.6484 72.5,25.7734 72.6406,25.8984 C72.7813,26.0391 73.0156,26.1484 73.2344,26.1484 C73.5,26.1484 73.7656,26.0078 73.9375,25.7891 C74.0469,25.6328 74.0781,25.4453 74.0781,25.0234 L74.0781,23.6016 C74.0781,23.1641 74.0625,23.0391 73.9688,22.8828 C73.8125,22.6172 73.5313,22.4766 73.2344,22.4766 C72.9375,22.4766 72.7344,22.5703 72.5156,22.8828 L72.3438,22.8047 Z " fill="#000000"/><text fill="#000000" font-family="sans-serif" font-size="12" font-style="italic" lengthAdjust="spacing" textLength="43" x="82" y="23.1387">«yaml»</text><text fill="#000000" font-family="sans-serif" font-size="14" lengthAdjust="spacing" textLength="33" x="87" y="38.9639">Hora</text><line style="stroke:#181818;stroke-width:0.5;" x1="56" x2="125" y1="47.2656" y2="47.2656"/><text fill="#000000" font-family="sans-serif" font-size="14" lengthAdjust="spacing" textLength="34" x="61" y="64.2607">time</text><line style="stroke:#181818;stroke-width:0.5;" x1="56" x2="125" y1="71.5625" y2="71.5625"/></g><!--MD5=[11c2e554f42f8b5b7e35ae6e936cd2f8]
link UserConfig to User--><g id="link_UserConfig_User"><path codeLine="15" d="M174.368,167.5 C212.213,167.5 256.94,167.5 294.823,167.5 " fill="none" id="UserConfig-User" style="stroke:#181818;stroke-width:1.0;"/><text fill="#000000" font-family="sans-serif" font-size="13" lengthAdjust="spacing" textLength="45" x="181.847" y="180.0934">+email</text><text fill="#000000" font-family="sans-serif" font-size="13" lengthAdjust="spacing" textLength="45" x="241.9889" y="180.1059">+email</text></g><!--MD5=[cbebcae1ad899d68e410e51a3b84ee78]
@startuml
left to right direction

class User << auth0 >> {
    +id: UUID
    +displayName: string
    +email: string
    +createdDate: Date
}

class UserConfig << yaml >> {
    +email: string
    +timeZone: TZstring
    +horas: Hora
}
UserConfig "+email" - - - "+email" User

class Hora << yaml >> {
    time
}
@enduml

PlantUML version 1.2022.6beta1(Unknown compile time)
(GPL source distribution)
Java Runtime: Java(TM) SE Runtime Environment
JVM: Java HotSpot(TM) 64-Bit Server VM
Default Encoding: UTF-8
Language: en
Country: US
--></g></svg>