<?xml version="1.0" encoding="UTF-8" standalone="no"?><svg xmlns="http://www.w3.org/2000/svg" xmlns:xlink="http://www.w3.org/1999/xlink" contentScriptType="application/ecmascript" contentStyleType="text/css" height="243px" preserveAspectRatio="none" style="width:961px;height:243px;background:#FFFFFF;" version="1.1" viewBox="0 0 961 243" width="961px" zoomAndPan="magnify"><defs><filter height="300%" id="f152yxhpiu68qf" width="300%" x="-1" y="-1"><feGaussianBlur result="blurOut" stdDeviation="2.0"/><feColorMatrix in="blurOut" result="blurOut2" type="matrix" values="0 0 0 0 0 0 0 0 0 0 0 0 0 0 0 0 0 0 .4 0"/><feOffset dx="4.0" dy="4.0" in="blurOut2" result="blurOut3"/><feBlend in="SourceGraphic" in2="blurOut3" mode="normal"/></filter></defs><g><!--MD5=[bea5b0d46523efab5ea1c1d339f396f0]
class Message--><rect codeLine="3" fill="#FEFECE" filter="url(#f152yxhpiu68qf)" height="143.5703" id="Message" style="stroke:#A80036;stroke-width:1.5;" width="157" x="7" y="7"/><ellipse cx="53.75" cy="25.9688" fill="#ADD1B2" rx="11" ry="11" style="stroke:#A80036;stroke-width:1.0;"/><path d="M56.0938,21.6406 C55.1563,21.2031 54.5625,21.0625 53.6875,21.0625 C51.0625,21.0625 49.0625,23.1406 49.0625,25.8594 L49.0625,26.9844 C49.0625,29.5625 51.1719,31.4531 54.0625,31.4531 C55.2813,31.4531 56.4375,31.1563 57.1875,30.6094 C57.7656,30.2031 58.0938,29.75 58.0938,29.3594 C58.0938,28.9063 57.7031,28.5156 57.2344,28.5156 C57.0156,28.5156 56.8125,28.5938 56.625,28.7813 C56.1719,29.2656 56.1719,29.2656 55.9844,29.3594 C55.5625,29.625 54.875,29.75 54.1094,29.75 C52.0625,29.75 50.7656,28.6563 50.7656,26.9531 L50.7656,25.8594 C50.7656,24.0781 52.0156,22.7656 53.75,22.7656 C54.3281,22.7656 54.9375,22.9219 55.4063,23.1719 C55.8906,23.4531 56.0625,23.6719 56.1563,24.0781 C56.2188,24.4844 56.25,24.6094 56.3906,24.7344 C56.5313,24.875 56.7656,24.9844 56.9844,24.9844 C57.25,24.9844 57.5156,24.8438 57.6875,24.625 C57.7969,24.4688 57.8281,24.2813 57.8281,23.8594 L57.8281,22.4375 C57.8281,22 57.8125,21.875 57.7188,21.7188 C57.5625,21.4531 57.2813,21.3125 56.9844,21.3125 C56.6875,21.3125 56.4844,21.4063 56.2656,21.7188 L56.0938,21.6406 Z " fill="#000000"/><text fill="#000000" font-family="sans-serif" font-size="12" font-style="italic" lengthAdjust="spacing" textLength="44" x="79.75" y="23.1387">«table»</text><text fill="#000000" font-family="sans-serif" font-size="12" lengthAdjust="spacing" textLength="55" x="74.25" y="37.1074">Message</text><line style="stroke:#A80036;stroke-width:1.5;" x1="8" x2="163" y1="44.9375" y2="44.9375"/><ellipse cx="18" cy="55.9375" fill="none" rx="3" ry="3" style="stroke:#038048;stroke-width:1.0;"/><text fill="#000000" font-family="sans-serif" font-size="11" lengthAdjust="spacing" textLength="45" x="27" y="59.1479">id: UUID</text><ellipse cx="18" cy="68.7422" fill="none" rx="3" ry="3" style="stroke:#038048;stroke-width:1.0;"/><text fill="#000000" font-family="sans-serif" font-size="11" lengthAdjust="spacing" textLength="61" x="27" y="71.9526">time: Date</text><ellipse cx="18" cy="81.5469" fill="none" rx="3" ry="3" style="stroke:#038048;stroke-width:1.0;"/><text fill="#000000" font-family="sans-serif" font-size="11" lengthAdjust="spacing" textLength="61" x="27" y="84.7573">text: string</text><ellipse cx="18" cy="94.3516" fill="none" rx="3" ry="3" style="stroke:#038048;stroke-width:1.0;"/><text fill="#000000" font-family="sans-serif" font-size="11" lengthAdjust="spacing" textLength="97" x="27" y="97.562">providerID: string</text><ellipse cx="18" cy="107.1563" fill="none" rx="3" ry="3" style="stroke:#038048;stroke-width:1.0;"/><text fill="#000000" font-family="sans-serif" font-size="11" lengthAdjust="spacing" textLength="96" x="27" y="110.3667">account: Account</text><ellipse cx="18" cy="119.9609" fill="none" rx="3" ry="3" style="stroke:#038048;stroke-width:1.0;"/><text fill="#000000" font-family="sans-serif" font-size="11" lengthAdjust="spacing" textLength="126" x="27" y="123.1714">direction: user|system</text><ellipse cx="18" cy="132.7656" fill="none" rx="3" ry="3" style="stroke:#038048;stroke-width:1.0;"/><text fill="#000000" font-family="sans-serif" font-size="11" lengthAdjust="spacing" textLength="131" x="27" y="135.9761">responseTo?: Message</text><line style="stroke:#A80036;stroke-width:1.5;" x1="8" x2="163" y1="142.5703" y2="142.5703"/><!--MD5=[b0085fc96ca6a14d88924623f9fb21c4]
class MessagingProvider--><rect codeLine="13" fill="#FEFECE" filter="url(#f152yxhpiu68qf)" height="66.7422" id="MessagingProvider" style="stroke:#A80036;stroke-width:1.5;" width="147" x="602" y="29.5"/><ellipse cx="617" cy="48.4688" fill="#ADD1B2" rx="11" ry="11" style="stroke:#A80036;stroke-width:1.0;"/><path d="M619.3438,44.1406 C618.4063,43.7031 617.8125,43.5625 616.9375,43.5625 C614.3125,43.5625 612.3125,45.6406 612.3125,48.3594 L612.3125,49.4844 C612.3125,52.0625 614.4219,53.9531 617.3125,53.9531 C618.5313,53.9531 619.6875,53.6563 620.4375,53.1094 C621.0156,52.7031 621.3438,52.25 621.3438,51.8594 C621.3438,51.4063 620.9531,51.0156 620.4844,51.0156 C620.2656,51.0156 620.0625,51.0938 619.875,51.2813 C619.4219,51.7656 619.4219,51.7656 619.2344,51.8594 C618.8125,52.125 618.125,52.25 617.3594,52.25 C615.3125,52.25 614.0156,51.1563 614.0156,49.4531 L614.0156,48.3594 C614.0156,46.5781 615.2656,45.2656 617,45.2656 C617.5781,45.2656 618.1875,45.4219 618.6563,45.6719 C619.1406,45.9531 619.3125,46.1719 619.4063,46.5781 C619.4688,46.9844 619.5,47.1094 619.6406,47.2344 C619.7813,47.375 620.0156,47.4844 620.2344,47.4844 C620.5,47.4844 620.7656,47.3438 620.9375,47.125 C621.0469,46.9688 621.0781,46.7813 621.0781,46.3594 L621.0781,44.9375 C621.0781,44.5 621.0625,44.375 620.9688,44.2188 C620.8125,43.9531 620.5313,43.8125 620.2344,43.8125 C619.9375,43.8125 619.7344,43.9063 619.5156,44.2188 L619.3438,44.1406 Z " fill="#000000"/><text fill="#000000" font-family="sans-serif" font-size="12" font-style="italic" lengthAdjust="spacing" textLength="64" x="656.5" y="45.6387">«abstract»</text><text fill="#000000" font-family="sans-serif" font-size="12" lengthAdjust="spacing" textLength="115" x="631" y="59.6074">MessagingProvider</text><line style="stroke:#A80036;stroke-width:1.5;" x1="603" x2="748" y1="67.4375" y2="67.4375"/><ellipse cx="613" cy="78.4375" fill="none" rx="3" ry="3" style="stroke:#038048;stroke-width:1.0;"/><text fill="#000000" font-family="sans-serif" font-size="11" lengthAdjust="spacing" textLength="48" x="622" y="81.6479">id: string</text><line style="stroke:#A80036;stroke-width:1.5;" x1="603" x2="748" y1="88.2422" y2="88.2422"/><!--MD5=[f9a29335b499db729be669fd1bd54958]
class Account--><rect codeLine="17" fill="#FEFECE" filter="url(#f152yxhpiu68qf)" height="105.1563" id="Account" style="stroke:#A80036;stroke-width:1.5;" width="196" x="285" y="88.5"/><ellipse cx="354.75" cy="107.4688" fill="#ADD1B2" rx="11" ry="11" style="stroke:#A80036;stroke-width:1.0;"/><path d="M357.0938,103.1406 C356.1563,102.7031 355.5625,102.5625 354.6875,102.5625 C352.0625,102.5625 350.0625,104.6406 350.0625,107.3594 L350.0625,108.4844 C350.0625,111.0625 352.1719,112.9531 355.0625,112.9531 C356.2813,112.9531 357.4375,112.6563 358.1875,112.1094 C358.7656,111.7031 359.0938,111.25 359.0938,110.8594 C359.0938,110.4063 358.7031,110.0156 358.2344,110.0156 C358.0156,110.0156 357.8125,110.0938 357.625,110.2813 C357.1719,110.7656 357.1719,110.7656 356.9844,110.8594 C356.5625,111.125 355.875,111.25 355.1094,111.25 C353.0625,111.25 351.7656,110.1563 351.7656,108.4531 L351.7656,107.3594 C351.7656,105.5781 353.0156,104.2656 354.75,104.2656 C355.3281,104.2656 355.9375,104.4219 356.4063,104.6719 C356.8906,104.9531 357.0625,105.1719 357.1563,105.5781 C357.2188,105.9844 357.25,106.1094 357.3906,106.2344 C357.5313,106.375 357.7656,106.4844 357.9844,106.4844 C358.25,106.4844 358.5156,106.3438 358.6875,106.125 C358.7969,105.9688 358.8281,105.7813 358.8281,105.3594 L358.8281,103.9375 C358.8281,103.5 358.8125,103.375 358.7188,103.2188 C358.5625,102.9531 358.2813,102.8125 357.9844,102.8125 C357.6875,102.8125 357.4844,102.9063 357.2656,103.2188 L357.0938,103.1406 Z " fill="#000000"/><text fill="#000000" font-family="sans-serif" font-size="12" font-style="italic" lengthAdjust="spacing" textLength="44" x="377.25" y="104.6387">«table»</text><text fill="#000000" font-family="sans-serif" font-size="12" lengthAdjust="spacing" textLength="48" x="375.25" y="118.6074">Account</text><line style="stroke:#A80036;stroke-width:1.5;" x1="286" x2="480" y1="126.4375" y2="126.4375"/><ellipse cx="296" cy="137.4375" fill="none" rx="3" ry="3" style="stroke:#038048;stroke-width:1.0;"/><text fill="#000000" font-family="sans-serif" font-size="11" lengthAdjust="spacing" textLength="45" x="305" y="140.6479">id: UUID</text><ellipse cx="296" cy="150.2422" fill="none" rx="3" ry="3" style="stroke:#038048;stroke-width:1.0;"/><text fill="#000000" font-family="sans-serif" font-size="11" lengthAdjust="spacing" textLength="58" x="305" y="153.4526">user: User</text><ellipse cx="296" cy="163.0469" fill="none" rx="3" ry="3" style="stroke:#038048;stroke-width:1.0;"/><text fill="#000000" font-family="sans-serif" font-size="11" lengthAdjust="spacing" textLength="97" x="305" y="166.2573">providerID: string</text><ellipse cx="296" cy="175.8516" fill="none" rx="3" ry="3" style="stroke:#038048;stroke-width:1.0;"/><text fill="#000000" font-family="sans-serif" font-size="11" lengthAdjust="spacing" textLength="170" x="305" y="179.062">providerMetadata: JSON string</text><line style="stroke:#A80036;stroke-width:1.5;" x1="286" x2="480" y1="185.6563" y2="185.6563"/><!--MD5=[3fd616f346a44cd59a91eb10b19e157c]
class User--><rect codeLine="24" fill="#FEFECE" filter="url(#f152yxhpiu68qf)" height="105.1563" id="User" style="stroke:#A80036;stroke-width:1.5;" width="138" x="809" y="124.5"/><ellipse cx="853.75" cy="143.4688" fill="#ADD1B2" rx="11" ry="11" style="stroke:#A80036;stroke-width:1.0;"/><path d="M856.0938,139.1406 C855.1563,138.7031 854.5625,138.5625 853.6875,138.5625 C851.0625,138.5625 849.0625,140.6406 849.0625,143.3594 L849.0625,144.4844 C849.0625,147.0625 851.1719,148.9531 854.0625,148.9531 C855.2813,148.9531 856.4375,148.6563 857.1875,148.1094 C857.7656,147.7031 858.0938,147.25 858.0938,146.8594 C858.0938,146.4063 857.7031,146.0156 857.2344,146.0156 C857.0156,146.0156 856.8125,146.0938 856.625,146.2813 C856.1719,146.7656 856.1719,146.7656 855.9844,146.8594 C855.5625,147.125 854.875,147.25 854.1094,147.25 C852.0625,147.25 850.7656,146.1563 850.7656,144.4531 L850.7656,143.3594 C850.7656,141.5781 852.0156,140.2656 853.75,140.2656 C854.3281,140.2656 854.9375,140.4219 855.4063,140.6719 C855.8906,140.9531 856.0625,141.1719 856.1563,141.5781 C856.2188,141.9844 856.25,142.1094 856.3906,142.2344 C856.5313,142.375 856.7656,142.4844 856.9844,142.4844 C857.25,142.4844 857.5156,142.3438 857.6875,142.125 C857.7969,141.9688 857.8281,141.7813 857.8281,141.3594 L857.8281,139.9375 C857.8281,139.5 857.8125,139.375 857.7188,139.2188 C857.5625,138.9531 857.2813,138.8125 856.9844,138.8125 C856.6875,138.8125 856.4844,138.9063 856.2656,139.2188 L856.0938,139.1406 Z " fill="#000000"/><text fill="#000000" font-family="sans-serif" font-size="12" font-style="italic" lengthAdjust="spacing" textLength="44" x="872.25" y="140.6387">«table»</text><text fill="#000000" font-family="sans-serif" font-size="12" lengthAdjust="spacing" textLength="29" x="879.75" y="154.6074">User</text><line style="stroke:#A80036;stroke-width:1.5;" x1="810" x2="946" y1="162.4375" y2="162.4375"/><ellipse cx="820" cy="173.4375" fill="none" rx="3" ry="3" style="stroke:#038048;stroke-width:1.0;"/><text fill="#000000" font-family="sans-serif" font-size="11" lengthAdjust="spacing" textLength="45" x="829" y="176.6479">id: UUID</text><ellipse cx="820" cy="186.2422" fill="none" rx="3" ry="3" style="stroke:#038048;stroke-width:1.0;"/><text fill="#000000" font-family="sans-serif" font-size="11" lengthAdjust="spacing" textLength="112" x="829" y="189.4526">displayName: string</text><ellipse cx="820" cy="199.0469" fill="none" rx="3" ry="3" style="stroke:#038048;stroke-width:1.0;"/><text fill="#000000" font-family="sans-serif" font-size="11" lengthAdjust="spacing" textLength="70" x="829" y="202.2573">email: string</text><ellipse cx="820" cy="211.8516" fill="none" rx="3" ry="3" style="stroke:#038048;stroke-width:1.0;"/><text fill="#000000" font-family="sans-serif" font-size="11" lengthAdjust="spacing" textLength="107" x="829" y="215.062">createdDate: Date</text><line style="stroke:#A80036;stroke-width:1.5;" x1="810" x2="946" y1="221.6563" y2="221.6563"/><!--MD5=[9aa72cca42bba837e1e967eb62f6f75a]
link Message to MessagingProvider--><path codeLine="31" d="M164.262,75.51 C200.888,73.958 245.183,72.211 285,71 C395.533,67.638 523.755,65.307 601.985,64.062 " fill="none" id="Message-MessagingProvider" style="stroke:#A80036;stroke-width:1.0;"/><text fill="#000000" font-family="sans-serif" font-size="13" lengthAdjust="spacing" textLength="76" x="518.1441" y="76.7446">+providerID</text><!--MD5=[4fe4b062db3d9426fe1d95c460d1ced1]
link Message to Account--><path codeLine="32" d="M164.139,95.29 C201.075,103.039 245.621,112.386 284.782,120.602 " fill="none" id="Message-Account" style="stroke:#A80036;stroke-width:1.0;"/><text fill="#000000" font-family="sans-serif" font-size="13" lengthAdjust="spacing" textLength="61" x="172.1539" y="109.1246">+account</text><!--MD5=[d8c3c16a015f600fa21b6a154632648d]
link Account to MessagingProvider--><path codeLine="33" d="M481.136,114.919 C520.557,104.334 565.309,92.318 601.825,82.513 " fill="none" id="Account-MessagingProvider" style="stroke:#A80036;stroke-width:1.0;"/><text fill="#000000" font-family="sans-serif" font-size="13" lengthAdjust="spacing" textLength="76" x="517.9729" y="96.493">+providerID</text><!--MD5=[c6dba07d65773170d5e872f69b4e054b]
link Account to User--><path codeLine="34" d="M481.107,148.091 C577.745,155.1477 723.569,165.7961 808.639,172.0081 " fill="none" id="Account-User" style="stroke:#A80036;stroke-width:1.0;"/><text fill="#000000" font-family="sans-serif" font-size="13" lengthAdjust="spacing" textLength="38" x="763.0455" y="184.2895">+user</text><!--MD5=[8419d84d63e819a0e6b21e60dfc27a4e]
@startuml
left to right direction

class Message << table >> {
    +id: UUID
    +time: Date
    +text: string
    +providerID: string
    +account: Account
    +direction: user|system
    +responseTo?: Message
}

class MessagingProvider << abstract >> {
    +id: string
}

class Account << table >> {
    +id: UUID
    +user: User
    +providerID: string
    +providerMetadata: JSON string
}

class User << table >> {
    +id: UUID
    +displayName: string
    +email: string
    +createdDate: Date
}

Message - - "+providerID" MessagingProvider
Message "+account" - - - Account
Account - - - "+providerID" MessagingProvider
Account - - - - "+user" User
@enduml

PlantUML version 1.2022.2beta1(Unknown compile time)
(GPL source distribution)
Java Runtime: Java(TM) SE Runtime Environment
JVM: Java HotSpot(TM) 64-Bit Server VM
Default Encoding: UTF-8
Language: en
Country: US
--></g></svg>