<?xml version="1.0" encoding="UTF-8" standalone="no"?><svg xmlns="http://www.w3.org/2000/svg" xmlns:xlink="http://www.w3.org/1999/xlink" contentScriptType="application/ecmascript" contentStyleType="text/css" height="462px" preserveAspectRatio="none" style="width:1111px;height:462px;background:#FFFFFF;" version="1.1" viewBox="0 0 1111 462" width="1111px" zoomAndPan="magnify"><defs><filter height="300%" id="f153z5omjo2vn" width="300%" x="-1" y="-1"><feGaussianBlur result="blurOut" stdDeviation="2.0"/><feColorMatrix in="blurOut" result="blurOut2" type="matrix" values="0 0 0 0 0 0 0 0 0 0 0 0 0 0 0 0 0 0 .4 0"/><feOffset dx="4.0" dy="4.0" in="blurOut2" result="blurOut3"/><feBlend in="SourceGraphic" in2="blurOut3" mode="normal"/></filter></defs><g><ellipse cx="727.24" cy="173.048" fill="#FEFECE" filter="url(#f153z5omjo2vn)" rx="68.24" ry="16.048" style="stroke:#A80036;stroke-width:1.5;"/><text fill="#000000" font-family="sans-serif" font-size="14" lengthAdjust="spacing" textLength="88" x="680.24" y="176.7956">Talk on chat</text><ellipse cx="1017.8658" cy="133.7732" fill="#FEFECE" filter="url(#f153z5omjo2vn)" rx="81.8658" ry="18.7732" style="stroke:#A80036;stroke-width:1.5;"/><text fill="#000000" font-family="sans-serif" font-size="14" lengthAdjust="spacing" textLength="123" x="955.3805" y="136.9463">On FB Messenger</text><ellipse cx="1018.2212" cy="212.0672" fill="#ADD8E6" filter="url(#f153z5omjo2vn)" rx="70.2212" ry="24.0672" style="stroke:#A80036;stroke-width:1.5;"/><text fill="#000000" font-family="sans-serif" font-size="14" font-style="italic" lengthAdjust="spacing" textLength="45" x="990.0315" y="205.7388">«Wip»</text><text fill="#000000" font-family="sans-serif" font-size="14" lengthAdjust="spacing" textLength="92" x="966.5315" y="222.0357">On Telegram</text><ellipse cx="285.0657" cy="45.8131" fill="#FEFECE" filter="url(#f153z5omjo2vn)" rx="187.0657" ry="39.8131" style="stroke:#A80036;stroke-width:1.5;"/><text fill="#000000" font-family="sans-serif" font-size="14" lengthAdjust="spacing" textLength="347" x="111.5657" y="48.6598">Receive notifications of liturgia horarum prayers</text><!--MD5=[fee662a292a0353a69bd162820bae93b]
entity User--><ellipse cx="21.5" cy="202" fill="#FEFECE" filter="url(#f153z5omjo2vn)" rx="8" ry="8" style="stroke:#A80036;stroke-width:1.5;"/><path d="M21.5,210 L21.5,237 M8.5,218 L34.5,218 M21.5,237 L8.5,252 M21.5,237 L34.5,252 " fill="none" filter="url(#f153z5omjo2vn)" style="stroke:#A80036;stroke-width:1.5;"/><text fill="#000000" font-family="sans-serif" font-size="14" lengthAdjust="spacing" textLength="31" x="6" y="270.4951">User</text><ellipse cx="285.0217" cy="147.0043" fill="#90EE90" filter="url(#f153z5omjo2vn)" rx="118.0217" ry="26.0043" style="stroke:#A80036;stroke-width:1.5;"/><text fill="#000000" font-family="sans-serif" font-size="14" font-style="italic" lengthAdjust="spacing" textLength="56" x="251.4201" y="137.8004">«Done»</text><text fill="#000000" font-family="sans-serif" font-size="14" lengthAdjust="spacing" textLength="193" x="182.9201" y="154.0973">Create account on website</text><ellipse cx="284.8654" cy="233.0731" fill="#ADD8E6" filter="url(#f153z5omjo2vn)" rx="110.8654" ry="24.5731" style="stroke:#A80036;stroke-width:1.5;"/><text fill="#000000" font-family="sans-serif" font-size="14" font-style="italic" lengthAdjust="spacing" textLength="45" x="256.0767" y="225.0794">«Wip»</text><text fill="#000000" font-family="sans-serif" font-size="14" lengthAdjust="spacing" textLength="168" x="194.5767" y="241.3763">Create account by chat</text><ellipse cx="284.7593" cy="323.8519" fill="#FEFECE" filter="url(#f153z5omjo2vn)" rx="144.7593" ry="31.3519" style="stroke:#A80036;stroke-width:1.5;"/><text fill="#000000" font-family="sans-serif" font-size="14" lengthAdjust="spacing" textLength="183" x="193.2593" y="318.5501">Connect website account</text><text fill="#000000" font-family="sans-serif" font-size="14" lengthAdjust="spacing" textLength="220" x="174.7593" y="334.847">to chat account and vice-versa</text><ellipse cx="284.9523" cy="419.0905" fill="#FEFECE" filter="url(#f153z5omjo2vn)" rx="130.9523" ry="28.5905" style="stroke:#A80036;stroke-width:1.5;"/><text fill="#000000" font-family="sans-serif" font-size="14" lengthAdjust="spacing" textLength="182" x="190.4705" y="414.6305">Configure liturgy of hours</text><text fill="#000000" font-family="sans-serif" font-size="14" lengthAdjust="spacing" textLength="185" x="188.9705" y="430.9273">reminders on the website</text><ellipse cx="726.8479" cy="418.9696" fill="#FEFECE" filter="url(#f153z5omjo2vn)" rx="147.8479" ry="31.9696" style="stroke:#A80036;stroke-width:1.5;"/><text fill="#000000" font-family="sans-serif" font-size="14" lengthAdjust="spacing" textLength="266" x="593.8479" y="421.8163">Login to website using link from chat</text><!--MD5=[6e98da9a120a6f5924558d9fb9675d97]
reverse link UCTalkChat to UCChatMessenger--><path d="M806.446,162.414 C850.284,156.498 904.456,149.188 946.874,143.463 " fill="none" id="UCTalkChat-backto-UCChatMessenger" style="stroke:#A80036;stroke-width:1.0;"/><polygon fill="none" points="807.24,169.37,786.483,165.108,805.368,155.496,807.24,169.37" style="stroke:#A80036;stroke-width:1.0;"/><!--MD5=[750912e61f230df51b85ac5c9154af97]
reverse link UCTalkChat to UCChatTelegram--><path d="M806.334,183.571 C852.178,189.758 909.355,197.474 952.57,203.305 " fill="none" id="UCTalkChat-backto-UCChatTelegram" style="stroke:#A80036;stroke-width:1.0;"/><polygon fill="none" points="805.368,190.504,786.483,180.892,807.24,176.63,805.368,190.504" style="stroke:#A80036;stroke-width:1.0;"/><!--MD5=[c369fac27f7db8c46f21bc69c96f8355]
reverse link UCReceive to UCTalkChat--><path d="M401.962,79.471 C494.421,106.158 618.729,142.038 683.198,160.646 " fill="none" id="UCReceive-backto-UCTalkChat" style="stroke:#A80036;stroke-width:1.0;stroke-dasharray:7.0,7.0;"/><polygon fill="#A80036" points="397.031,78.047,404.5677,84.3872,401.8347,79.4344,406.7875,76.7013,397.031,78.047" style="stroke:#A80036;stroke-width:1.0;"/><text fill="#000000" font-family="sans-serif" font-size="13" lengthAdjust="spacing" textLength="45" x="503" y="106.0669">include</text><!--MD5=[2c60d1b412a38d6b0a44515ac4e144b2]
reverse link User to UCReceive--><path d="M38.8707,187.53 C51.1389,159.466 70.5609,124.784 98,103 C113.342,90.82 131.28,81.234 149.849,73.69 " fill="none" id="User-backto-UCReceive" style="stroke:#A80036;stroke-width:1.0;"/><polygon fill="#A80036" points="36.8132,192.33,44.0356,185.6339,38.7831,187.7344,36.6826,182.482,36.8132,192.33" style="stroke:#A80036;stroke-width:1.0;"/><!--MD5=[1857423bf0980a25f1138f78786e3a22]
link User to UCCreateAccountWebsite--><path d="M37.2226,224.138 C45.8384,219.017 56.9634,212.517 67,207 C80.5871,199.531 83.4587,196.38 98,191 C126.831,180.333 159.153,171.624 188.664,164.853 " fill="none" id="User-to-UCCreateAccountWebsite" style="stroke:#A80036;stroke-width:1.0;"/><polygon fill="#A80036" points="193.756,163.697,184.0943,161.7859,188.8797,164.8025,185.8632,169.5879,193.756,163.697" style="stroke:#A80036;stroke-width:1.0;"/><!--MD5=[46a155ee35a903c0d423bfb4c7a65f74]
reverse link UCAccountChat to UCTalkChat--><path d="M385.006,219.499 C471.998,207.637 595.623,190.779 667.655,180.956 " fill="none" id="UCAccountChat-backto-UCTalkChat" style="stroke:#A80036;stroke-width:1.0;stroke-dasharray:7.0,7.0;"/><polygon fill="#A80036" points="379.851,220.202,389.309,222.9491,384.8051,219.5263,388.2279,215.0224,379.851,220.202" style="stroke:#A80036;stroke-width:1.0;"/><text fill="#000000" font-family="sans-serif" font-size="13" lengthAdjust="spacing" textLength="45" x="503" y="194.0669">include</text><!--MD5=[345a941a3c979ace04878ef24c19a6b9]
link User to UCAccountChat--><path d="M37.3086,233 C62.8483,233 117.388,233 168.707,233 " fill="none" id="User-to-UCAccountChat" style="stroke:#A80036;stroke-width:1.0;"/><polygon fill="#A80036" points="173.981,233,164.981,229,168.981,233,164.981,237,173.981,233" style="stroke:#A80036;stroke-width:1.0;"/><!--MD5=[cdc71edd0f939c0c65b071b3486533e8]
link User to UCConnectAccounts--><path d="M37.2751,242.685 C52.1092,252.051 75.8757,266.096 98,275 C122.789,284.977 150.254,293.504 176.3,300.513 " fill="none" id="User-to-UCConnectAccounts" style="stroke:#A80036;stroke-width:1.0;"/><polygon fill="#A80036" points="181.146,301.804,173.4791,295.6219,176.3145,300.5168,171.4196,303.3523,181.146,301.804" style="stroke:#A80036;stroke-width:1.0;"/><!--MD5=[9728b82128d59f7d38af0dad65e5832a]
link User to UCConfigureLOH--><path d="M34.341,273.681 C45.6462,305.373 65.8056,348.048 98,373 C116.901,387.6487 139.853,397.6977 163.091,404.5752 " fill="none" id="User-to-UCConfigureLOH" style="stroke:#A80036;stroke-width:1.0;"/><polygon fill="#A80036" points="168.053,405.9951,160.5009,399.6733,163.246,404.6194,158.2998,407.3645,168.053,405.9951" style="stroke:#A80036;stroke-width:1.0;"/><!--MD5=[2bb1c29ed1cf4a0c72597f0072118fbb]
link UCConfigureLOH to Login to website using link from chat--><path d="M416.229,419 C465.595,419 522.241,419 573.479,419 " fill="none" id="UCConfigureLOH-to-Login to website using link from chat" style="stroke:#A80036;stroke-width:1.0;stroke-dasharray:7.0,7.0;"/><polygon fill="#A80036" points="578.739,419,569.739,415,573.739,419,569.739,423,578.739,419" style="stroke:#A80036;stroke-width:1.0;"/><text fill="#000000" font-family="sans-serif" font-size="13" lengthAdjust="spacing" textLength="45" x="503" y="415.0669">include</text><!--MD5=[1b8cab216c422540dd8577d5a68a6e72]
@startuml
left to right direction

skinparam usecase {
    BackgroundColor<< Done >> LightGreen
    BackgroundColor<< Wip >> LightBlue
}

usecase "Talk on chat" as UCTalkChat
usecase UCChatMessenger as "On FB Messenger"
UCTalkChat <|- - UCChatMessenger
usecase UCChatTelegram as "On Telegram" << Wip >>
UCTalkChat <|- - UCChatTelegram

usecase "Receive notifications of liturgia horarum prayers" as UCReceive
UCReceive <-. UCTalkChat :include
:User: <- - UCReceive
usecase UCCreateAccountWebsite as "Create account on website" << Done >>
:User: - -> UCCreateAccountWebsite
usecase "Create account by chat" as UCAccountChat << Wip >>
UCAccountChat <-. UCTalkChat :include
:User: - -> UCAccountChat
usecase UCConnectAccounts as "Connect website account 
to chat account and vice-versa"
:User: - -> UCConnectAccounts
usecase UCConfigureLOH as "Configure liturgy of hours
reminders on the website" 
:User: - -> UCConfigureLOH
UCConfigureLOH .-> (Login to website using link from chat) :include
@enduml

PlantUML version 1.2022.2beta1(Unknown compile time)
(GPL source distribution)
Java Runtime: Java(TM) SE Runtime Environment
JVM: Java HotSpot(TM) 64-Bit Server VM
Default Encoding: UTF-8
Language: en
Country: US
--></g></svg>