<?xml version="1.0" encoding="UTF-8" standalone="no"?><svg xmlns="http://www.w3.org/2000/svg" xmlns:xlink="http://www.w3.org/1999/xlink" contentScriptType="application/ecmascript" contentStyleType="text/css" height="457px" preserveAspectRatio="none" style="width:1111px;height:457px;background:#FFFFFF;" version="1.1" viewBox="0 0 1111 457" width="1111px" zoomAndPan="magnify"><defs><filter height="300%" id="f1mvcs869x9xzk" width="300%" x="-1" y="-1"><feGaussianBlur result="blurOut" stdDeviation="2.0"/><feColorMatrix in="blurOut" result="blurOut2" type="matrix" values="0 0 0 0 0 0 0 0 0 0 0 0 0 0 0 0 0 0 .4 0"/><feOffset dx="4.0" dy="4.0" in="blurOut2" result="blurOut3"/><feBlend in="SourceGraphic" in2="blurOut3" mode="normal"/></filter></defs><g><ellipse cx="727.24" cy="170.048" fill="#FEFECE" filter="url(#f1mvcs869x9xzk)" rx="68.24" ry="16.048" style="stroke:#A80036;stroke-width:1.5;"/><text fill="#000000" font-family="sans-serif" font-size="14" lengthAdjust="spacing" textLength="88" x="680.24" y="173.7956">Talk on chat</text><ellipse cx="1017.8658" cy="133.7732" fill="#FEFECE" filter="url(#f1mvcs869x9xzk)" rx="81.8658" ry="18.7732" style="stroke:#A80036;stroke-width:1.5;"/><text fill="#000000" font-family="sans-serif" font-size="14" lengthAdjust="spacing" textLength="123" x="955.3805" y="136.9463">On FB Messenger</text><ellipse cx="1018.1952" cy="204.839" fill="#FEFECE" filter="url(#f1mvcs869x9xzk)" rx="69.6952" ry="16.339" style="stroke:#A80036;stroke-width:1.5;"/><text fill="#000000" font-family="sans-serif" font-size="14" lengthAdjust="spacing" textLength="92" x="969.1952" y="208.5866">On Telegram</text><ellipse cx="285.0657" cy="45.8131" fill="#FEFECE" filter="url(#f1mvcs869x9xzk)" rx="187.0657" ry="39.8131" style="stroke:#A80036;stroke-width:1.5;"/><text fill="#000000" font-family="sans-serif" font-size="14" lengthAdjust="spacing" textLength="347" x="111.5657" y="48.6598">Receive notifications of liturgia horarum prayers</text><!--MD5=[fee662a292a0353a69bd162820bae93b]
entity User--><ellipse cx="21.5" cy="198" fill="#FEFECE" filter="url(#f1mvcs869x9xzk)" rx="8" ry="8" style="stroke:#A80036;stroke-width:1.5;"/><path d="M21.5,206 L21.5,233 M8.5,214 L34.5,214 M21.5,233 L8.5,248 M21.5,233 L34.5,248 " fill="none" filter="url(#f1mvcs869x9xzk)" style="stroke:#A80036;stroke-width:1.5;"/><text fill="#000000" font-family="sans-serif" font-size="14" lengthAdjust="spacing" textLength="31" x="6" y="266.4951">User</text><ellipse cx="284.8004" cy="146.0601" fill="#FEFECE" filter="url(#f1mvcs869x9xzk)" rx="113.3004" ry="25.0601" style="stroke:#A80036;stroke-width:1.5;"/><text fill="#000000" font-family="sans-serif" font-size="14" lengthAdjust="spacing" textLength="193" x="188.3004" y="148.9068">Create account on website</text><ellipse cx="284.7923" cy="228.7585" fill="#FEFECE" filter="url(#f1mvcs869x9xzk)" rx="101.7923" ry="22.7585" style="stroke:#A80036;stroke-width:1.5;"/><text fill="#000000" font-family="sans-serif" font-size="14" lengthAdjust="spacing" textLength="168" x="200.7923" y="231.6051">Create account by chat</text><ellipse cx="284.7593" cy="318.8519" fill="#FEFECE" filter="url(#f1mvcs869x9xzk)" rx="144.7593" ry="31.3519" style="stroke:#A80036;stroke-width:1.5;"/><text fill="#000000" font-family="sans-serif" font-size="14" lengthAdjust="spacing" textLength="183" x="193.2593" y="313.5501">Connect website account</text><text fill="#000000" font-family="sans-serif" font-size="14" lengthAdjust="spacing" textLength="220" x="174.7593" y="329.847">to chat account and vice-versa</text><ellipse cx="284.9523" cy="414.0905" fill="#FEFECE" filter="url(#f1mvcs869x9xzk)" rx="130.9523" ry="28.5905" style="stroke:#A80036;stroke-width:1.5;"/><text fill="#000000" font-family="sans-serif" font-size="14" lengthAdjust="spacing" textLength="182" x="190.4705" y="409.6305">Configure liturgy of hours</text><text fill="#000000" font-family="sans-serif" font-size="14" lengthAdjust="spacing" textLength="185" x="188.9705" y="425.9273">reminders on the website</text><ellipse cx="726.8479" cy="413.9696" fill="#FEFECE" filter="url(#f1mvcs869x9xzk)" rx="147.8479" ry="31.9696" style="stroke:#A80036;stroke-width:1.5;"/><text fill="#000000" font-family="sans-serif" font-size="14" lengthAdjust="spacing" textLength="266" x="593.8479" y="416.8163">Login to website using link from chat</text><!--MD5=[787fb2c4bf06ee6b0ff251884fd56099]
reverse link UCTalkChat to On FB Messenger--><path d="M807.54,160.092 C850.723,154.713 903.68,148.116 945.541,142.901 " fill="none" id="UCTalkChat-backto-On FB Messenger" style="stroke:#A80036;stroke-width:1.0;"/><polygon fill="none" points="808.242,167.058,787.531,162.584,806.512,153.166,808.242,167.058" style="stroke:#A80036;stroke-width:1.0;"/><!--MD5=[b7b2aa4cb8540d3f588a1a8b43ebf668]
reverse link UCTalkChat to On Telegram--><path d="M807.788,179.663 C854.505,185.321 912.596,192.356 955.702,197.576 " fill="none" id="UCTalkChat-backto-On Telegram" style="stroke:#A80036;stroke-width:1.0;"/><polygon fill="none" points="806.894,186.606,787.881,177.252,808.578,172.707,806.894,186.606" style="stroke:#A80036;stroke-width:1.0;"/><!--MD5=[c369fac27f7db8c46f21bc69c96f8355]
reverse link UCReceive to UCTalkChat--><path d="M403.651,79.156 C495.708,105.1 618.531,139.713 682.737,157.808 " fill="none" id="UCReceive-backto-UCTalkChat" style="stroke:#A80036;stroke-width:1.0;stroke-dasharray:7.0,7.0;"/><polygon fill="#A80036" points="398.74,77.772,406.3166,84.0645,403.5523,79.129,408.4878,76.3647,398.74,77.772" style="stroke:#A80036;stroke-width:1.0;"/><text fill="#000000" font-family="sans-serif" font-size="13" lengthAdjust="spacing" textLength="45" x="503" y="104.0669">include</text><!--MD5=[2c60d1b412a38d6b0a44515ac4e144b2]
reverse link User to UCReceive--><path d="M39.1991,184.92 C51.5992,157.716 71.0448,124.1 98,103 C113.425,90.925 131.408,81.396 149.998,73.879 " fill="none" id="User-backto-UCReceive" style="stroke:#A80036;stroke-width:1.0;"/><polygon fill="#A80036" points="37.1177,189.574,44.4437,182.9914,39.1591,185.0097,37.1408,179.7252,37.1177,189.574" style="stroke:#A80036;stroke-width:1.0;"/><!--MD5=[4bb0317cf6f61536abd3a1205c20fb12]
link User to Create account on website--><path d="M37.1698,220.04 C45.7681,214.887 56.8931,208.387 67,203 C80.507,195.8 83.5518,193.052 98,188 C127.54,177.671 160.627,169.243 190.612,162.721 " fill="none" id="User-to-Create account on website" style="stroke:#A80036;stroke-width:1.0;"/><polygon fill="#A80036" points="195.783,161.608,186.1431,159.5899,190.8948,162.6594,187.8253,167.411,195.783,161.608" style="stroke:#A80036;stroke-width:1.0;"/><!--MD5=[46a155ee35a903c0d423bfb4c7a65f74]
reverse link UCAccountChat to UCTalkChat--><path d="M378.351,216.617 C465.5,204.931 593.507,187.766 667.431,177.854 " fill="none" id="UCAccountChat-backto-UCTalkChat" style="stroke:#A80036;stroke-width:1.0;stroke-dasharray:7.0,7.0;"/><polygon fill="#A80036" points="373.193,217.308,382.6446,220.0768,378.1487,216.6437,381.5818,212.1478,373.193,217.308" style="stroke:#A80036;stroke-width:1.0;"/><text fill="#000000" font-family="sans-serif" font-size="13" lengthAdjust="spacing" textLength="45" x="503" y="191.0669">include</text><!--MD5=[345a941a3c979ace04878ef24c19a6b9]
link User to UCAccountChat--><path d="M37.3086,229 C64.3129,229 123.739,229 177.497,229 " fill="none" id="User-to-UCAccountChat" style="stroke:#A80036;stroke-width:1.0;"/><polygon fill="#A80036" points="182.681,229,173.681,225,177.681,229,173.681,233,182.681,229" style="stroke:#A80036;stroke-width:1.0;"/><!--MD5=[cdc71edd0f939c0c65b071b3486533e8]
link User to UCConnectAccounts--><path d="M37.0296,238.261 C51.8695,247.386 75.8156,261.203 98,270 C122.986,279.908 150.647,288.43 176.831,295.457 " fill="none" id="User-to-UCConnectAccounts" style="stroke:#A80036;stroke-width:1.0;"/><polygon fill="#A80036" points="181.702,296.752,174.0329,290.5726,176.8701,295.4665,171.9761,298.3037,181.702,296.752" style="stroke:#A80036;stroke-width:1.0;"/><!--MD5=[9728b82128d59f7d38af0dad65e5832a]
link User to UCConfigureLOH--><path d="M34.5326,269.715 C45.9025,301.15 66.0551,343.318 98,368 C116.923,382.6203 139.885,392.6569 163.125,399.5311 " fill="none" id="User-to-UCConfigureLOH" style="stroke:#A80036;stroke-width:1.0;"/><polygon fill="#A80036" points="168.088,400.9506,160.5359,394.6288,163.281,399.5749,158.3348,402.32,168.088,400.9506" style="stroke:#A80036;stroke-width:1.0;"/><!--MD5=[2bb1c29ed1cf4a0c72597f0072118fbb]
link UCConfigureLOH to Login to website using link from chat--><path d="M416.229,414 C465.595,414 522.241,414 573.479,414 " fill="none" id="UCConfigureLOH-to-Login to website using link from chat" style="stroke:#A80036;stroke-width:1.0;stroke-dasharray:7.0,7.0;"/><polygon fill="#A80036" points="578.739,414,569.739,410,573.739,414,569.739,418,578.739,414" style="stroke:#A80036;stroke-width:1.0;"/><text fill="#000000" font-family="sans-serif" font-size="13" lengthAdjust="spacing" textLength="45" x="503" y="410.0669">include</text><!--MD5=[a956ade4b77a38b3456ea2b19fc5645c]
@startuml
left to right direction
skinparam packageStyle rectangle

usecase "Talk on chat" as UCTalkChat
UCTalkChat <|- - (On FB Messenger)
UCTalkChat <|- - (On Telegram)

usecase "Receive notifications of liturgia horarum prayers" as UCReceive
UCReceive <-. UCTalkChat :include
:User: <- - UCReceive
:User: - -> (Create account on website)
usecase "Create account by chat" as UCAccountChat
UCAccountChat <-. UCTalkChat :include
:User: - -> UCAccountChat
usecase UCConnectAccounts as "Connect website account 
to chat account and vice-versa"
:User: - -> UCConnectAccounts
usecase UCConfigureLOH as "Configure liturgy of hours
reminders on the website" 
:User: - -> UCConfigureLOH
UCConfigureLOH .-> (Login to website using link from chat) :include
@enduml

PlantUML version 1.2022.2beta1(Unknown compile time)
(GPL source distribution)
Java Runtime: Java(TM) SE Runtime Environment
JVM: Java HotSpot(TM) 64-Bit Server VM
Default Encoding: UTF-8
Language: en
Country: US
--></g></svg>